<svg width="55" height="55" viewBox="0 0 55 55" fill="none" xmlns="http://www.w3.org/2000/svg">
<path d="M19.5938 50.4167C18.5243 50.4167 17.5885 50.092 16.7865 49.4427C15.9844 48.7934 15.4497 47.9531 15.1823 46.9219L12.6042 36.6667H42.3958L39.8177 46.9219C39.5503 47.9531 39.0156 48.7934 38.2135 49.4427C37.4115 50.092 36.4757 50.4167 35.4062 50.4167H19.5938ZM27.5 18.3333C27.5 14.8958 28.6649 11.9167 30.9948 9.39583C33.3246 6.87499 36.2274 5.34722 39.7031 4.81249C39.8941 4.7743 40.066 4.7934 40.2187 4.86979C40.3715 4.94617 40.5243 5.04166 40.6771 5.15624C40.8299 5.27083 40.9353 5.41367 40.9933 5.58479C41.0514 5.7559 41.0606 5.9377 41.0208 6.1302C40.6007 9.14756 39.3693 11.773 37.3267 14.0067C35.284 16.2403 32.7724 17.6061 29.7917 18.1042V22.9167H45.8333C46.4826 22.9167 47.0273 23.1367 47.4673 23.5767C47.9073 24.0167 48.1265 24.5606 48.125 25.2083V29.7917C48.125 31.0521 47.6766 32.1315 46.7798 33.0298C45.883 33.9281 44.8036 34.3765 43.5417 34.375H11.4583C10.1979 34.375 9.11931 33.9266 8.2225 33.0298C7.32569 32.133 6.87653 31.0536 6.875 29.7917V25.2083C6.875 24.559 7.095 24.0151 7.535 23.5767C7.975 23.1382 8.51889 22.9182 9.16667 22.9167H25.2083V18.1042C22.2292 17.6076 19.7183 16.2426 17.6756 14.009C15.633 11.7753 14.4008 9.14909 13.9792 6.1302C13.941 5.93923 13.9509 5.75819 14.009 5.58708C14.067 5.41597 14.1717 5.27235 14.3229 5.15624C14.4742 5.04013 14.6269 4.94465 14.7812 4.86979C14.9356 4.79492 15.1074 4.77583 15.2969 4.81249C18.7726 5.34722 21.6753 6.87499 24.0052 9.39583C26.3351 11.9167 27.5 14.8958 27.5 18.3333Z" fill="#676767"/>
</svg>
