<svg width="55" height="55" viewBox="0 0 55 55" fill="none" xmlns="http://www.w3.org/2000/svg">
<path d="M20.5759 46.7916C18.4458 45.1993 16.7795 43.1563 15.5771 40.6627L10.849 43.3609C10.5091 43.5616 10.1489 43.5973 9.76859 43.468C9.38828 43.3387 9.09824 43.1032 8.89848 42.7616C8.69871 42.42 8.64877 42.0581 8.74865 41.6759C8.84853 41.2938 9.06847 41.0024 9.40845 40.8016L14.4332 37.9066C14.2162 37.2638 14.05 36.5912 13.9348 35.8887C13.8195 35.1842 13.7139 34.474 13.6179 33.7579H7.44059C7.02954 33.7579 6.68668 33.6199 6.41201 33.3439C6.13734 33.0679 6 32.7234 6 32.3104C6 31.8973 6.13734 31.5538 6.41201 31.2797C6.68668 31.0056 7.02954 30.8667 7.44059 30.8628H13.566C13.589 29.9499 13.6755 29.0495 13.8253 28.1617C13.979 27.2719 14.1826 26.4131 14.4361 25.5851L9.3537 22.635C9.01372 22.4343 8.79379 22.1428 8.69391 21.7607C8.59403 21.3785 8.64397 21.0166 8.84373 20.675C9.04349 20.3334 9.33642 20.1095 9.72249 20.0034C10.1086 19.8972 10.4716 19.9455 10.8116 20.1481L15.505 22.9013C15.8508 22.1892 16.2388 21.5078 16.669 20.8574C17.0993 20.207 17.5603 19.5971 18.052 19.0277C17.9944 18.7633 17.956 18.4999 17.9368 18.2374C17.9176 17.9729 17.908 17.7095 17.908 17.447C17.908 16.2137 18.1135 15.0479 18.5245 13.9497C18.9356 12.8515 19.5022 11.8624 20.2244 10.9823L17.7091 8.45488C17.4402 8.18468 17.3029 7.86139 17.2971 7.48503C17.2914 7.10867 17.4287 6.76126 17.7091 6.4428C17.9781 6.12434 18.3056 5.97766 18.6916 6.00275C19.0777 6.02591 19.4302 6.17356 19.749 6.4457L22.4401 9.00495C23.2564 8.46067 24.1275 8.04282 25.0533 7.75138C25.9791 7.45994 26.9587 7.31422 27.9921 7.31422C29.0255 7.31422 30.0176 7.47152 30.9684 7.78612C31.9192 8.10072 32.8018 8.53112 33.6162 9.07733L36.2381 6.4428C36.5185 6.16294 36.8585 6.01626 37.258 6.00275C37.6556 5.98924 37.9946 6.14268 38.2751 6.46307C38.544 6.74485 38.6727 7.08551 38.6612 7.48503C38.6477 7.88648 38.5008 8.2281 38.2203 8.50989L35.705 11.0373C36.4292 11.9174 36.9939 12.8979 37.3992 13.9787C37.8045 15.0595 38.0062 16.2156 38.0042 17.447V18.1997C38.0042 18.4391 37.9754 18.69 37.9178 18.9525C38.4076 19.5218 38.859 20.1356 39.272 20.7937C39.683 21.4499 40.0624 22.1341 40.41 22.8463L45.0776 20.1481C45.4195 19.9474 45.7806 19.8991 46.1609 20.0034C46.5412 20.1095 46.8312 20.3334 47.031 20.675C47.2308 21.0166 47.2778 21.3814 47.1722 21.7694C47.0665 22.1573 46.8437 22.4516 46.5037 22.6524L41.4789 25.5301C41.7325 26.2828 41.938 27.0577 42.0955 27.8548C42.253 28.6519 42.3616 29.4693 42.4211 30.307H48.5494C48.9585 30.307 49.3004 30.445 49.5751 30.721C49.8498 30.997 49.9881 31.3415 49.99 31.7545C49.9919 32.1675 49.8536 32.5121 49.5751 32.788C49.2966 33.064 48.9547 33.202 48.5494 33.202H42.4211C42.3616 34.0416 42.2559 34.8503 42.1042 35.6281C41.9524 36.4059 41.768 37.1712 41.551 37.9239L46.6305 40.874C46.9705 41.0747 47.1904 41.3691 47.2903 41.757C47.3902 42.143 47.3402 42.5078 47.1405 42.8514C46.9407 43.193 46.6507 43.414 46.2704 43.5143C45.89 43.6147 45.5299 43.5645 45.1899 43.3638L40.4648 40.6077C39.2604 43.1013 37.5845 45.1539 35.4371 46.7655C33.2897 48.3771 30.808 49.1819 27.9921 49.18C25.1762 49.1781 22.7042 48.3819 20.5759 46.7916ZM20.8554 16.6769C21.8561 15.9319 22.9539 15.3539 24.1486 14.9428C25.3453 14.5336 26.6264 14.329 27.9921 14.329C29.3213 14.329 30.5785 14.5317 31.7636 14.937C32.9468 15.3404 34.0388 15.8962 35.0395 16.6045C34.8782 14.7903 34.1233 13.2704 32.7749 12.0448C31.4265 10.8211 29.8322 10.2093 27.9921 10.2093C26.1155 10.2093 24.4982 10.8337 23.1402 12.0824C21.7803 13.3312 21.0187 14.8627 20.8554 16.6769ZM27.9921 46.2878C31.4976 46.2878 34.3038 44.8075 36.4109 41.8468C38.5181 38.8861 39.5716 35.522 39.5716 31.7545C39.5716 28.3769 38.5901 25.1113 36.627 21.9575C34.664 18.8 31.7857 17.2212 27.9921 17.2212C24.2081 17.2212 21.3327 18.7865 19.3658 21.917C17.3989 25.0476 16.4136 28.3267 16.4097 31.7545C16.4097 35.5181 17.4633 38.8812 19.5704 41.8439C21.6775 44.8065 24.4847 46.2868 27.9921 46.2849M26.9635 38.5782C26.6889 38.3022 26.5515 37.9577 26.5515 37.5447V27.354C26.5515 26.9429 26.6889 26.5993 26.9635 26.3233C27.2382 26.0473 27.5811 25.9093 27.9921 25.9093C28.4032 25.9093 28.746 26.0473 29.0207 26.3233C29.2954 26.5993 29.4327 26.9438 29.4327 27.3569V37.5447C29.4327 37.9577 29.2954 38.3022 29.0207 38.5782C28.746 38.8542 28.4032 38.9922 27.9921 38.9922C27.5811 38.9922 27.2382 38.8542 26.9635 38.5782Z" fill="#E45454"/>
</svg>
